# xmcd
#
# Track frame offsets:
# 150
# 14257
# 28101
# 44606
# 60634
# 74439
# 90534
# 104619
# 119974
# 135016
# 153686
# 171804
#
# Disc length: 2462 seconds
#
#
# Revision: 3
# Processed by: cddbd v1.5.2PL0 Copyright (c) Steve Scherf et al.
# Submitted via: FreeRIP 2.945 
#
DISCID=a8099c0c
DTITLE=Esso Music Festival - Som do Interior
DYEAR=1900
DGENRE=Sertanejas
TTITLE0=Fio de Cabelo
TTITLE1=Peão Apaixonado
TTITLE2=Cama Dividida
TTITLE3=Faz Amor Comigo
TTITLE4=Moreninha Linda
TTITLE5=Coração Sertanejo
TTITLE6=Cunhada Boa
TTITLE7=Cavalo Baio
TTITLE8=So Alegria
TTITLE9=Linda
TTITLE10=Brincar de Sert Feliz
TTITLE11=O Menino da Porteira
EXTD=
EXTT0=
EXTT1=
EXTT2=
EXTT3=
EXTT4=
EXTT5=
EXTT6=
EXTT7=
EXTT8=
EXTT9=
EXTT10=
EXTT11=
PLAYORDER=
